<svg width="138" height="21" viewBox="0 0 138 21" fill="none" xmlns="http://www.w3.org/2000/svg">
<path d="M60.4339 13.7659C62.1562 13.7659 63.5524 12.3779 63.5524 10.6657C63.5524 8.95346 62.1562 7.56543 60.4339 7.56543C58.7116 7.56543 57.3154 8.95346 57.3154 10.6657C57.3154 12.3779 58.7116 13.7659 60.4339 13.7659Z" fill="#F37128"/>
<path d="M134.883 15.4607L130.871 9.52892L126.879 3.55579C125.528 1.5303 123.262 0.331543 120.829 0.331543C118.397 0.331543 116.131 1.5303 114.779 3.55579L106.796 15.4607C106.214 16.3288 105.258 16.8455 104.197 16.8455C103.137 16.8455 102.181 16.3495 101.599 15.4607L97.2535 8.97088L93.636 3.55579C92.2846 1.5303 90.0185 0.331543 87.5861 0.331543C86.8169 0.331543 86.0684 0.455552 85.3616 0.682903C85.3408 0.682903 85.32 0.703573 85.2992 0.703573C85.1953 0.744909 85.0705 0.786244 84.9666 0.82758C83.5736 1.36496 82.3678 2.29503 81.5154 3.57646L72.8876 15.5641C72.3054 16.3701 71.3491 16.8662 70.3512 16.8662H68.7711C70.0809 15.13 70.8501 13.0012 70.8501 10.6657C70.8501 4.96124 66.1932 0.331543 60.4551 0.331543C54.7171 0.331543 50.0601 4.96124 50.0601 10.6657C50.0601 12.9805 50.8293 15.13 52.1391 16.8662H50.6422C49.6443 16.8662 48.688 16.3908 48.1059 15.5641L39.4572 3.53513C38.1059 1.5303 35.8397 0.352209 33.4281 0.352209C30.9957 0.352209 28.7295 1.55097 27.3782 3.57646L25.1329 6.94539L22.846 3.55579C21.4946 1.5303 19.2285 0.331543 16.7961 0.331543C14.3636 0.331543 12.0975 1.5303 10.7462 3.55579L2.76282 15.4607C2.18069 16.3288 1.22435 16.8455 0.164062 16.8455V20.9791C2.59649 20.9791 4.86261 19.7804 6.21396 17.7549L14.1973 5.84997C14.7794 4.9819 15.7358 4.4652 16.7961 4.4652C17.8564 4.4652 18.8127 4.96124 19.3948 5.84997L23.0539 11.2857V15.7707C23.0539 17.4242 23.6984 18.9743 24.8626 20.1524L25.715 20.9998L28.6672 18.0856L27.8148 17.2382C27.4198 16.8455 27.2119 16.3288 27.2119 15.7707V11.2857L30.8501 5.84997C31.4323 4.9819 32.3886 4.4652 33.4489 4.4652C34.5092 4.4652 35.4655 4.96124 36.0476 5.84997L44.7587 17.9616C46.1308 19.8631 48.3345 20.9791 50.6838 20.9791H59.3325H60.268C60.3304 20.9791 60.4135 20.9791 60.4759 20.9791C60.5383 20.9791 60.6214 20.9791 60.6838 20.9791H61.7233H70.372C72.7212 20.9791 74.925 19.8424 76.2971 17.9616L84.9666 5.91198L85.0081 5.84997C85.3824 5.3126 85.8813 4.89923 86.4634 4.67188C86.8169 4.54787 87.1911 4.4652 87.5861 4.4652C88.6464 4.4652 89.6027 4.96124 90.1849 5.84997L93.8231 11.2651L94.1765 11.8024L98.1682 17.7549C99.5196 19.7804 101.786 20.9791 104.218 20.9791C106.651 20.9791 108.917 19.7804 110.268 17.7549L118.251 5.84997C118.834 4.9819 119.79 4.4652 120.85 4.4652C121.91 4.4652 122.867 4.96124 123.449 5.84997L127.461 11.8231L131.474 17.7549C132.763 19.6977 135.029 20.9171 137.378 20.9378L137.42 16.8042C136.588 16.8042 135.507 16.3908 134.883 15.4607ZM60.4343 4.4652C63.8647 4.4652 66.6713 7.25541 66.6713 10.6657C66.6713 14.0139 63.9894 16.7628 60.6422 16.8662H60.2264C56.8792 16.7628 54.1973 14.0139 54.1973 10.6657C54.1973 7.25541 57.004 4.4652 60.4343 4.4652Z" fill="#12919C"/>
</svg>
