<svg width="33" height="23" viewBox="0 0 33 23" fill="none" xmlns="http://www.w3.org/2000/svg">
<path d="M31.9528 14C29.9801 14 28.9572 12.9545 28.1292 12.1136C27.3255 11.2955 26.814 10.8182 25.7424 10.8182C24.6708 10.8182 24.1594 11.2955 23.3557 12.1136C22.5277 12.9545 21.5048 14 19.5321 14C17.5594 14 16.5365 12.9545 15.7085 12.1136C14.9048 11.2955 14.3934 10.8182 13.3218 10.8182C12.2502 10.8182 11.7387 11.2955 10.9351 12.1136C10.107 12.9545 9.10849 14 7.11144 14C5.13875 14 4.11587 12.9545 3.28782 12.1136C2.5572 11.2955 2.04576 10.8182 0.97417 10.8182C0.438376 10.8182 0 10.4091 0 9.90909C0 9.40909 0.438376 9 0.97417 9C2.94686 9 3.96974 10.0455 4.79779 10.8864C5.60148 11.7045 6.11292 12.1818 7.1845 12.1818C8.25609 12.1818 8.76753 11.7045 9.57122 10.8864C10.3993 10.0455 11.4221 9 13.3948 9C15.3675 9 16.3904 10.0455 17.2185 10.8864C18.0221 11.7045 18.5336 12.1818 19.6052 12.1818C20.6768 12.1818 21.1882 11.7045 21.9919 10.8864C22.8199 10.0455 23.8428 9 25.8155 9C27.7882 9 28.8111 10.0455 29.6391 10.8864C30.4428 11.7045 30.9542 12.1818 32.0258 12.1818C32.5616 12.1818 33 12.5909 33 13.0909C33 13.5909 32.4886 14 31.9528 14Z" fill="#12919C"/>
<path d="M31.9528 5C29.9801 5 28.9572 3.95455 28.1292 3.11364C27.3255 2.29545 26.814 1.81818 25.7424 1.81818C24.6708 1.81818 24.1594 2.29545 23.3557 3.11364C22.5277 3.95455 21.5048 5 19.5321 5C17.5594 5 16.5365 3.95455 15.7085 3.11364C14.9048 2.29545 14.3934 1.81818 13.3218 1.81818C12.2502 1.81818 11.7387 2.29545 10.9351 3.11364C10.107 3.95455 9.10849 5 7.11144 5C5.13875 5 4.11587 3.95455 3.28782 3.11364C2.5572 2.29545 2.04576 1.81818 0.97417 1.81818C0.438376 1.81818 0 1.40909 0 0.909091C0 0.409091 0.438376 0 0.97417 0C2.94686 0 3.96974 1.04545 4.79779 1.88636C5.60148 2.70455 6.11292 3.18182 7.1845 3.18182C8.25609 3.18182 8.76753 2.70455 9.57122 1.88636C10.3993 1.04545 11.4221 0 13.3948 0C15.3675 0 16.3904 1.04545 17.2185 1.88636C18.0221 2.70455 18.5336 3.18182 19.6052 3.18182C20.6768 3.18182 21.1882 2.70455 21.9919 1.88636C22.8199 1.04545 23.8428 0 25.8155 0C27.7882 0 28.8111 1.04545 29.6391 1.88636C30.4428 2.70455 30.9542 3.18182 32.0258 3.18182C32.5616 3.18182 33 3.59091 33 4.09091C33 4.59091 32.4886 5 31.9528 5Z" fill="#12919C"/>
<path d="M31.9528 23C29.9801 23 28.9572 21.9545 28.1292 21.1136C27.3255 20.2955 26.814 19.8182 25.7424 19.8182C24.6708 19.8182 24.1594 20.2955 23.3557 21.1136C22.5277 21.9545 21.5048 23 19.5321 23C17.5594 23 16.5365 21.9545 15.7085 21.1136C14.9048 20.2955 14.3934 19.8182 13.3218 19.8182C12.2502 19.8182 11.7387 20.2955 10.9351 21.1136C10.107 21.9545 9.10849 23 7.11144 23C5.13875 23 4.11587 21.9545 3.28782 21.1136C2.5572 20.2955 2.04576 19.8182 0.97417 19.8182C0.438376 19.8182 0 19.4091 0 18.9091C0 18.4091 0.438376 18 0.97417 18C2.94686 18 3.96974 19.0455 4.79779 19.8864C5.60148 20.7045 6.11292 21.1818 7.1845 21.1818C8.25609 21.1818 8.76753 20.7045 9.57122 19.8864C10.3993 19.0455 11.4221 18 13.3948 18C15.3675 18 16.3904 19.0455 17.2185 19.8864C18.0221 20.7045 18.5336 21.1818 19.6052 21.1818C20.6768 21.1818 21.1882 20.7045 21.9919 19.8864C22.8199 19.0455 23.8428 18 25.8155 18C27.7882 18 28.8111 19.0455 29.6391 19.8864C30.4428 20.7045 30.9542 21.1818 32.0258 21.1818C32.5616 21.1818 33 21.5909 33 22.0909C33 22.5909 32.4886 23 31.9528 23Z" fill="#12919C"/>
</svg>
